# xmcd CD database file
#
# Track frame offsets:
#	150
#	5875
#	13675
#	33537
#	44262
#	54575
#	65100
#	71387
#	77600
#	86187
#	95012
#	105237
#	116850
#	127537
#	136675
#	142300
#	151937
#	166075
#	177225
#	187550
#	198275
#	204562
#	215237
#	224462
#	232637
#	249650
#	257587
#
# Disc length: 3461 seconds
#
# Revision: 0
# Processed by: cddbd v1.5.2PL0 Copyright (c) Steve Scherf et al.
# Submitted via: CDex 1.70beta2
#
DISCID=780d831b
DTITLE=Various Artist - The Amazing Shoichi Yui Volume 1
DYEAR=1900
DGENRE=Jazz
TTITLE0=Bud Powell - Theme  - Un Poco Loco(MasterTakes)
TTITLE1=Miles Davis - Tempus Fusit
TTITLE2=Art Blakey - A Night In Tunisia
TTITLE3=Horace Silver - Senor Blues
TTITLE4=Hank Mobley - Wham and They're Off
TTITLE5=Lee Morgan - Roccus
TTITLE6=Kenny Dorham - Minor's Holiday
TTITLE7=Art Blakey - Minor's Holiday
TTITLE8=Lou Donaldson - Caracas
TTITLE9=Jimmy Smith - Funk's Oats
TTITLE10=Clifford Jordan and John Gilmore - Evil Eye
TTITLE11=Johnny Griffin - It's Alright With Me
TTITLE12=Sonny Rollins - Sonnysphere
TTITLE13=J.J. Johnson - Coffee Pot
TTITLE14=Bud Powell - Theme  - Un Poco Loco(1stTake)
TTITLE15=Kenny Burrell - Get Happy
TTITLE16=Paul Chambers - Whims Of Chmbers
TTITLE17=Thad Jones - Billie-Doo
TTITLE18=J.R. Monterose - Wee-Jay
TTITLE19=Milt Jackson - Willow Weep For Me
TTITLE20=Thelonious Monk - In Walked Bud
TTITLE21=Bud Powell - Ornithology
TTITLE22=Jutta Hipp - Take Me In Your Arms
TTITLE23=Fats Navarro - Our Delight(AltTake)
TTITLE24=Clifford Brown - Easy Living
TTITLE25=Herbie Nichols - The Lady Sings The Blues
TTITLE26=Art Blakey - Closing;Lullaby Of Birdland
EXTD=
EXTT0=
EXTT1=
EXTT2=
EXTT3=
EXTT4=
EXTT5=
EXTT6=
EXTT7=
EXTT8=
EXTT9=
EXTT10=
EXTT11=
EXTT12=
EXTT13=
EXTT14=
EXTT15=
EXTT16=
EXTT17=
EXTT18=
EXTT19=
EXTT20=
EXTT21=
EXTT22=
EXTT23=
EXTT24=
EXTT25=
EXTT26=
PLAYORDER=
